<?xml version="1.0" encoding="iso-8859-1"?>
<!-- Generator: Adobe Illustrator 17.1.0, SVG Export Plug-In . SVG Version: 6.00 Build 0)  -->
<!DOCTYPE svg PUBLIC "-//W3C//DTD SVG 1.1//EN" "http://www.w3.org/Graphics/SVG/1.1/DTD/svg11.dtd">
<svg version="1.1" xmlns="http://www.w3.org/2000/svg" xmlns:xlink="http://www.w3.org/1999/xlink" x="0px" y="0px"
	 viewBox="0 0 1024 1024" style="enable-background:new 0 0 1024 1024;" xml:space="preserve">
<g id="bubble">
	<path id="bubble_3_" style="fill:#F4625B;" d="M421.023,463.141c0,19.681-15.885,35.524-35.503,35.524
		c-19.577,0-35.441-15.844-35.441-35.524c0-19.556,15.865-35.482,35.441-35.482C405.138,427.659,421.023,443.585,421.023,463.141z
		 M512,427.659c-19.639,0-35.462,15.927-35.462,35.482c0,19.681,15.823,35.524,35.462,35.524c19.577,0,35.42-15.844,35.42-35.524
		C547.42,443.585,531.577,427.659,512,427.659z M1016.99,512c0,278.904-226.086,504.989-504.99,504.989S7.011,790.904,7.011,512
		C7.011,233.116,233.096,7.01,512,7.01S1016.99,233.116,1016.99,512z M799.843,465.028c0-115.448-128.907-209.08-287.843-209.08
		c-158.998,0-287.842,93.632-287.842,209.08c0,107.692,111.985,196.306,255.906,207.815h-0.062c0,0,71.131,80.691,149.582,95.207
		c0,0-32.019-50.496-28.1-100.578C716.518,640.077,799.843,557.81,799.843,465.028z M638.398,427.659
		c-19.577,0-35.504,15.927-35.504,35.482c0,19.681,15.927,35.524,35.504,35.524c19.576,0,35.461-15.844,35.461-35.524
		C673.859,443.585,657.975,427.659,638.398,427.659z"/>
</g>
<g id="Layer_1">
</g>
</svg>
